<svg width="180" height="81" fill="none" xmlns="http://www.w3.org/2000/svg"><path d="M44.062 59.863v-5.287h15.206c.36-1.272.56-2.583.56-3.975h.079v-2.146H44.222v-5.287h15.685V20.312L16.563 63.48c6.945 6.003 17.002 9.858 18.32 9.819 1.516-.04 15.405-4.532 21.751-13.436H44.062Z" fill="#002850"/><path d="M35.56 29.494h-8.38v8.348h-4.75v-8.348H14.05v-4.73h8.381v-8.268h4.75v8.308h8.38v4.69Zm.16-19.437c-9.897-.2-20.554 2.663-26.38 6.956H9.3v32.793h.04c0 3.578 1.236 6.639 3.192 9.262l43.942-43.764c-5.787-3.26-12.492-5.088-20.753-5.247Z" fill="#009DE0"/><path d="M75.592 16.536v9.937h-2.355v-9.937h-3.153v-2.067h8.621v2.067h-3.113ZM87.087 26.473v-5.048h-4.072v5.048h-2.354V14.47h2.355v4.889h4.07v-4.89h2.355v12.005h-2.355ZM92.235 26.473V14.47h7.942v2.067H94.59v2.822h4.79v2.107h-4.79v2.901h5.587v2.107h-7.942Z" fill="#002850"/><path d="M113.348 16.496c-.638-.636-1.437-.874-2.355-.874h-2.634v9.738h2.634c.918 0 1.756-.238 2.355-.874.838-.875.798-2.664.798-4.134 0-1.51.04-3.021-.798-3.856Zm.878 8.864c-.718.716-1.796 1.113-3.033 1.113h-4.151V14.47h4.151c1.237 0 2.315.397 3.033 1.113 1.237 1.232 1.197 3.1 1.197 4.77 0 1.63.08 3.736-1.197 5.008ZM122.488 26.553c-2.435 0-4.191-1.67-4.191-4.055v-8.03h1.277v7.95c0 1.83 1.158 3.022 2.914 3.022 1.756 0 2.913-1.193 2.913-3.021v-7.95h1.277v8.03c.04 2.384-1.756 4.054-4.19 4.054ZM134.621 20.908h-3.313v4.412h3.273c1.477 0 2.434-.874 2.434-2.226 0-1.351-.917-2.186-2.394-2.186Zm-.16-5.287h-3.153v4.174h3.153c1.357 0 2.355-.676 2.355-2.107.04-1.43-.998-2.066-2.355-2.066Zm.28 10.852h-4.71V14.47h4.55c2.115 0 3.552 1.192 3.552 3.22 0 1.271-.758 2.265-1.796 2.623 1.157.437 1.956 1.43 1.956 2.862.04 2.146-1.437 3.3-3.552 3.3ZM141.366 26.473V14.47h1.277V25.32h6.146v1.153h-7.423ZM152.341 14.469h-1.277v12.004h1.277V14.47ZM163.517 26.473l-6.386-9.62v9.62h-1.277V14.47h1.197l6.426 9.58v-9.58h1.277v12.004h-1.237Z" fill="#009DE0"/><path d="m75.033 36.888-1.516 4.372h2.993l-1.477-4.372Zm2.794 8.466-.718-2.106h-4.27l-.72 2.106h-2.474l4.39-12.004h1.836l4.39 12.004h-2.434ZM85.65 45.474c-1.317 0-2.395-.477-3.273-1.312-1.237-1.232-1.197-2.703-1.197-4.81 0-2.107-.04-3.577 1.197-4.81.838-.834 1.916-1.311 3.273-1.311 2.235 0 4.03 1.272 4.43 3.816h-2.395c-.24-.954-.838-1.71-2.035-1.71-.639 0-1.158.239-1.517.636-.439.517-.599 1.074-.599 3.38 0 2.305.12 2.9.599 3.378.32.397.878.636 1.517.636 1.197 0 1.796-.755 2.035-1.71h2.395c-.44 2.545-2.195 3.817-4.43 3.817ZM95.987 36.888 94.47 41.26h2.993l-1.476-4.372Zm2.833 8.466-.718-2.106h-4.31l-.719 2.106H90.6l4.39-12.004h1.836l4.39 12.004H98.82ZM108.639 36.172c-.4-.477-.958-.755-1.757-.755h-1.796v7.83h1.796c.799 0 1.357-.238 1.757-.755.439-.556.518-1.391.518-3.22 0-1.788-.079-2.543-.518-3.1Zm1.636 8.07c-.798.794-1.916 1.152-3.193 1.152h-4.35V33.35h4.35c1.237 0 2.395.358 3.193 1.153 1.357 1.351 1.237 3.02 1.237 4.81 0 1.788.12 3.577-1.237 4.928ZM113.907 45.354V33.35h7.942v2.107h-5.587v2.822h4.789v2.067h-4.789v2.941h5.587v2.067h-7.942ZM132.745 45.354v-6.996l-2.315 4.572h-1.596l-2.315-4.572v6.996h-2.355V33.35h2.315l3.153 6.519 3.153-6.52h2.315v12.005h-2.355ZM142.523 40.425v4.93h-2.354v-4.93l-3.592-7.075h2.554l2.235 4.85 2.235-4.85h2.554l-3.632 7.075Z" fill="#002850"/><path d="M158.009 35.258c-.519-.556-1.277-.875-2.076-.875-.798 0-1.556.319-2.075.875-.758.795-.838 1.59-.838 4.094 0 2.505.08 3.34.838 4.095.519.556 1.277.874 2.075.874.799 0 1.557-.318 2.076-.874.758-.796.838-1.59.838-4.095 0-2.504-.08-3.299-.838-4.094Zm.998 8.983c-.799.795-1.876 1.233-3.074 1.233-1.197 0-2.274-.438-3.073-1.232-1.117-1.113-1.117-2.306-1.117-4.85 0-2.544 0-3.736 1.117-4.85.799-.794 1.876-1.232 3.073-1.232 1.198 0 2.275.438 3.074 1.232 1.117 1.114 1.117 2.306 1.117 4.85 0 2.504 0 3.697-1.117 4.85ZM164.475 34.503v4.412h5.268v1.153h-5.268v5.286h-1.318V33.35h7.504v1.153h-6.186ZM71.322 64.275V52.271h7.463v1.152h-6.186v4.214h5.268v1.153h-5.268v4.332h6.186v1.153h-7.463ZM87.765 54.298c-.639-.636-1.437-.875-2.355-.875h-2.634v9.7h2.634c.918 0 1.756-.24 2.355-.875.838-.875.798-2.663.798-4.134 0-1.47.04-2.981-.798-3.816Zm.878 8.864c-.718.716-1.796 1.113-3.033 1.113h-4.151V52.271h4.15c1.238 0 2.316.397 3.034 1.113 1.237 1.232 1.197 3.1 1.197 4.77 0 1.63.08 3.736-1.197 5.008ZM96.905 64.355c-2.435 0-4.191-1.67-4.191-4.055v-8.03h1.277v7.95c0 1.83 1.158 3.022 2.914 3.022 1.756 0 2.913-1.193 2.913-3.021v-7.95h1.277v8.03c.04 2.384-1.756 4.054-4.19 4.054ZM108.2 64.355c-1.198 0-2.275-.438-3.074-1.233-1.117-1.113-1.117-2.305-1.117-4.85 0-2.543 0-3.736 1.117-4.849.799-.795 1.916-1.232 3.074-1.232 2.155 0 3.791 1.312 4.19 3.578h-1.317c-.319-1.471-1.357-2.425-2.873-2.425-.799 0-1.557.318-2.076.835-.758.795-.838 1.59-.838 4.134 0 2.504.08 3.339.838 4.134.519.556 1.277.834 2.076.834 1.516 0 2.594-.954 2.913-2.424h1.277c-.399 2.186-2.035 3.498-4.19 3.498ZM118.537 54.1l-2.275 6.36h4.51l-2.235-6.36Zm3.552 10.175-.958-2.703h-5.269l-.957 2.703h-1.357l4.43-12.004h1.077l4.431 12.004h-1.397ZM127.956 53.423v10.852h-1.278V53.423h-3.512v-1.152h8.262v1.152h-3.472ZM134.98 52.27h-1.277v12.005h1.277V52.271ZM144.319 54.179c-.519-.557-1.277-.875-2.075-.875-.798 0-1.557.318-2.075.875-.759.795-.839 1.59-.839 4.094 0 2.504.08 3.339.839 4.094.518.557 1.277.875 2.075.875.798 0 1.556-.318 2.075-.875.759-.795.838-1.59.838-4.094 0-2.504-.079-3.34-.838-4.094Zm.998 8.943c-.798.795-1.876 1.233-3.073 1.233s-2.275-.438-3.073-1.233c-1.118-1.113-1.118-2.305-1.118-4.85 0-2.543 0-3.736 1.118-4.849.798-.795 1.876-1.232 3.073-1.232s2.275.437 3.073 1.232c1.118 1.113 1.118 2.306 1.118 4.85 0 2.544 0 3.736-1.118 4.85ZM157.171 64.275l-6.386-9.62v9.62h-1.317V52.271h1.237l6.386 9.58v-9.58h1.317v12.004h-1.237Z" fill="#009DE0"/></svg>
